<svg xmlns="http://www.w3.org/2000/svg" id="i-logo" viewBox="0 0 832 164" fill="none"><path fill-rule="evenodd" clip-rule="evenodd" d="M322.85 22.474c-.988.992-.843 93.156.148 94.727.604.955 3.678 1.218 11.749 1.007l10.932-.288V22.337l-11.065-.283c-6.086-.155-11.38.034-11.764.42zM74.991 39.014c-14.427 1.266-44.341 5.71-45.365 6.74-.466.468-.73 22.104-.587 48.079l.26 47.228 10.932.288c8.072.211 11.146-.052 11.75-1.006.448-.713.822-5.087.831-9.723l.016-8.428 5.256.654c11.624 1.447 45.767 1.859 56.949.688 15.036-1.576 36.061-5.745 37.076-7.353.444-.704.815-16.545.824-35.201.017-38.99 1.3-34.818-11.499-37.407-21.576-4.365-47.989-6.177-66.443-4.558zm146.539.019c-11.858 1.113-44.483 5.78-45.704 6.538-.468.29-.852 16.333-.852 35.649 0 32.43.134 35.19 1.752 36.031 2.357 1.224 22.63 4.935 33.791 6.183 4.956.556 16.67 1.01 26.031 1.01 9.362 0 21.076-.454 26.032-1.01 11.161-1.248 31.433-4.959 33.79-6.183 1.618-.841 1.752-3.603 1.752-36.071V46.02l-2.252-.524c-18.274-4.243-32.853-6.206-51.312-6.907-7.159-.273-17.521-.072-23.028.444zm200.742-.412c-7.62.572-29.988 3.316-40.799 5.004-11.922 1.861-12.253 2.357-7.344 10.958 4.342 7.607 4.05 7.514 16.973 5.395 19.652-3.223 39.519-4.242 57.096-2.93 8.593.64 17.426 1.476 19.628 1.855l4.005.69.294 7.272.294 7.272-30.33-.585c-16.682-.322-39.078-.153-49.768.376-16.993.84-19.608 1.192-20.775 2.798-1 1.372-1.333 6.423-1.322 20.006.009 9.994.374 18.737.812 19.43 1.074 1.7 15.959 4.871 32.321 6.884 25.381 3.123 66.544.749 86.211-4.972l4.29-1.248.263-34.786c.204-27.061-.018-35.013-1.001-35.812-2.062-1.675-29.244-6.192-43.816-7.28-13.11-.98-17.59-1.035-27.032-.327zm144.173-.065c-15.345 1.07-44.535 5.863-46.819 7.689-.985.786-1.206 8.836-1.002 36.342l.264 35.333h23.027l.501-28.604.501-28.603 3.003-.818c7.498-2.042 34.465-3.233 48.735-2.151 12.598.954 14.557.895 16.118-.486 2.069-1.83 8.273-14.089 7.516-14.85-1.913-1.922-39.48-4.714-51.844-3.852zm156.574.447c-11.237.87-33.84 4.495-39.37 6.315l-3.568 1.173-.271 19.73c-.25 18.232-.124 19.914 1.663 22.132l1.934 2.4 49.649-.187 49.649-.186v5.85c0 3.46-.511 6.268-1.252 6.874-4.916 4.032-60.226 4.193-81.204.238-13.462-2.539-12.744-2.771-17.054 5.515-3.854 7.407-3.609 8.068 3.645 9.87 16.956 4.211 27.684 5.231 54.815 5.205 26.896-.025 37.953-1.154 56.568-5.776l5.006-1.242.271-20.235c.239-17.9.077-20.395-1.405-21.632-1.361-1.135-10.904-1.492-50.831-1.9l-49.156-.503-.298-6.296c-.37-7.805-.636-7.67 18.412-9.353 16.116-1.424 40.913-.725 55.975 1.577 5.507.841 12.293 1.803 15.081 2.137l5.069.607 3.796-7.26c2.11-4.035 3.415-7.644 2.938-8.123-1.087-1.093-32.066-5.585-47.909-6.947-13.253-1.14-17.246-1.137-32.153.017zm-91.039 3.21c-.266.693-.364 18.011-.22 38.484l.264 37.223h23.027l.263-37.11c.188-26.551-.06-37.5-.873-38.484-1.549-1.876-21.75-1.978-22.461-.114zM117.906 59.19c5.231.59 9.85 1.28 10.262 1.536.413.257.751 9.479.751 20.494 0 18.053-.173 20.119-1.752 20.947-5.424 2.843-42.677 4.169-60.823 2.164-15.222-1.682-13.516 1.164-13.516-22.543 0-23.848-2.01-20.914 15.518-22.658 6.057-.601 12.59-1.27 14.518-1.484 4.966-.55 23.819.28 35.042 1.544zm146.175.019c4.681.595 9.074 1.54 9.762 2.1 1.717 1.395 1.801 39.55.089 40.613-2.313 1.436-23.679 3.353-37.384 3.353-13.704 0-35.071-1.917-37.384-3.353-1.487-.924-1.653-39.42-.173-40.339.936-.581 18.304-2.992 28.046-3.893 6.444-.596 27.06.25 37.044 1.519zm207.75 38.013c0 6.295-.078 6.488-2.921 7.252-9.938 2.671-40.844 3.614-59.23 1.806-17.116-1.682-16.887-1.578-17.251-7.92-.17-2.944-.068-5.979.223-6.742.441-1.157 7.156-1.346 39.855-1.127l39.324.263v6.468z" fill="#fff"></path></svg>